<svg width="435" height="435" viewBox="0 0 435 435" fill="none" xmlns="http://www.w3.org/2000/svg">
<path d="M217.5 0C337.622 0 435 97.3781 435 217.5C435 337.622 337.622 435 217.5 435C97.3781 435 0 337.622 0 217.5C0 97.3781 97.3781 0 217.5 0ZM227.975 17.3955C211.829 16.3714 195.671 17.3216 179.688 20.4102C132.447 29.5397 93.3643 52.4032 62.8389 89.0107C35.3237 122.008 20.3078 160.225 17.4785 202.876C16.3669 219.634 17.1592 236.434 20.1963 253.035C25.5375 282.23 36.6268 309.077 54.1016 333.27C55.6244 335.378 56.9106 337.741 59.2246 339.402C66.525 333.995 73.1318 328.007 79.0459 321.232C88.4196 310.494 94.7952 298.313 97.8125 284.432C100.618 271.525 100.103 258.441 99.9531 245.379C99.9395 244.188 99.4996 243.002 99.1885 241.477C92.9268 246.414 88.5666 252.437 83.459 257.994C83.2418 246.239 85.2535 234.925 87.8818 223.692C90.5398 212.333 94.3389 201.284 97.8848 189.342C88.4499 194.914 81.297 201.982 73.6035 208.593C78.617 183.746 89.8246 161.66 102.969 140.33C94.3758 143.588 86.8258 148.384 78.9219 153.463C78.8604 151.088 79.6493 149.826 80.2188 148.521C85.2951 136.885 91.5437 125.897 98.8467 115.479C114.081 93.7477 132.658 75.7385 157.107 64.2363C176.272 55.2207 196.455 52.0021 217.485 54.3418C229.606 55.6903 241.214 59.1342 252.534 64.1709C254.782 65.2634 256.904 66.1613 258.9 67.2754C274.76 76.1236 290.635 84.9359 307.042 92.7822C320.857 99.3891 335.026 105.308 348.095 113.383C360.388 120.979 371.002 130.187 377.603 143.212C386.336 160.448 389.311 178.788 387.892 197.902C387.674 200.836 386.703 201.585 383.782 201.025C379.903 200.282 376.005 199.648 372.068 199.466C360.006 198.906 348.021 200.263 336.031 201.204C324.746 202.09 313.496 202.484 302.177 201.725C289.405 200.867 276.929 198.459 264.459 195.794C247.89 192.252 231.523 187.724 214.536 186.195C200.555 184.937 187.044 186.524 173.998 191.642C170.327 193.082 166.697 194.693 163.78 197.457C163.192 198.015 162.549 198.679 162.88 199.589C163.232 200.557 164.101 200.93 165.082 200.927C167.75 200.916 170.427 200.987 173.083 200.797C184.62 199.971 196.112 198.914 207.741 199.702C219.224 200.48 230.503 202.285 241.736 204.542C263.92 208.999 285.85 214.762 308.647 215.878C320.636 216.465 332.521 215.839 344.434 214.889C352.031 214.283 359.608 213.3 367.255 213.503C368.622 213.539 370.271 213.485 371 214.747C371.801 216.133 370.485 217.308 369.743 218.389C363.848 226.983 355.569 232.518 345.908 236.17C330.018 242.177 313.457 241.71 296.919 240.67C286.914 240.04 276.907 239.541 266.895 239.544C251.973 239.548 237.313 242.232 222.607 244.356C211.322 245.987 200.068 247.092 188.634 245.353C163.464 241.523 143.361 229.527 128.052 209.522C127.47 208.763 127.155 207.71 125.978 207.407C125.857 207.664 125.641 207.902 125.662 208.117C125.786 209.375 125.957 210.629 126.127 211.882C127.931 225.151 132.157 237.646 138.486 249.461C144.324 260.358 152.321 269.808 159.423 279.857C165.391 288.302 170.691 297.112 174.515 306.724C175.018 307.99 175.936 309.324 174.693 311.261C165.965 303.407 156.955 296.144 146.277 290.39C146.318 292.526 147.046 293.893 147.577 295.297C151.441 305.51 154.554 315.924 156.619 326.65C158.3 335.379 159.526 344.132 159.971 353.026C160.261 358.843 160.673 364.623 159.907 370.418C159.794 371.275 160.034 372.423 158.814 372.648C157.825 372.831 157.439 371.894 157 371.224C151.568 362.924 145.039 355.561 137.47 349.117C134.043 346.2 130.682 343.152 126.124 340.761C127.63 347.495 129.287 353.588 130.204 359.861C131.864 371.22 131.002 382.488 129.667 393.754C129.362 396.323 129.8 397.699 132.34 398.791C150.96 406.801 170.152 412.766 190.338 415.502C192.959 415.857 194.371 415.206 195.899 413.278C212.304 392.586 220.645 369.002 222.104 342.886C222.676 332.663 223.705 322.476 225.455 312.379C226.977 303.599 229.195 294.997 232.992 286.867C233.399 285.996 233.539 284.686 234.941 284.739C235.624 285.427 235.288 286.016 235.152 286.635C233.562 293.905 232.251 301.227 232.214 308.687C232.186 314.217 232.02 319.743 232.673 325.281C233.659 333.645 234.275 342.052 235.062 350.438C235.962 360.044 236.049 369.632 234.562 379.198C232.712 391.104 229.02 402.479 224.51 413.627C224.094 414.654 223.329 415.671 223.773 416.98C235.057 417.188 246.072 415.765 256.934 413.39C302.268 403.475 340.231 381.412 369.916 345.926C400.428 309.451 415.798 267.365 416.944 220.211C417.331 204.319 415.688 188.539 412.168 172.97C401.597 126.205 377.169 87.9926 339.068 58.5049C306.506 33.303 269.133 20.0061 227.975 17.3955ZM345.185 144.396C339.158 142.565 334.947 146.278 336.07 152.667C337.368 156.462 339.989 158.479 343.66 159.302C350.523 160.841 356.549 163.952 361.716 168.682C362.107 169.04 362.517 169.466 363.2 169.188C363.646 168.06 363.502 166.932 363.178 165.768C361.616 160.151 358.83 155.194 354.851 150.924C352.154 148.03 349.088 145.583 345.185 144.396ZM236.556 94.5645C223.078 87.2747 208.956 82.6152 193.312 84.8477C175.021 87.4577 161.917 97.2707 153.432 113.325C153.03 114.086 152.323 114.852 153.004 115.828C154.058 116.097 154.726 115.343 155.511 114.934C159.343 112.936 163.296 111.212 167.461 110.025C171.354 108.916 172.496 109.942 171.775 113.804C171.118 117.326 171.113 120.916 171.558 124.391C174.125 144.463 189.06 160.786 209.387 165.863C215.018 167.193 220.554 167.781 226.017 166.98C243.993 164.346 257.728 155.917 264.447 138.423C265.062 136.823 265.902 136.323 267.728 136.37C274.371 136.541 280.962 136.001 287.101 133.163C290.159 131.749 293.051 130.041 295.033 126.878C294.124 126.49 293.498 126.119 292.82 125.95C286.69 124.427 281.155 121.596 275.72 118.507C262.405 110.939 250.04 101.858 236.556 94.5645ZM211.854 108.416C216.029 107.726 220.058 108.826 223.932 110.389C224.696 110.697 225.57 111.043 225.589 112.01C225.609 113.042 224.591 113.25 223.884 113.561C219.55 115.464 216.444 118.437 214.947 122.985C212.956 129.037 213.892 134.514 218.392 139.104C223.101 143.908 228.885 144.68 235.173 142.749C235.957 142.508 236.69 142.106 237.446 141.778C241.588 139.565 243.649 136.002 245.815 132.147C247.584 134.531 246.684 136.476 246.153 138.258C243.925 145.733 237.886 149.139 231.012 151.237C215.574 155.95 200.452 147.375 196.501 131.888C193.562 120.369 200.029 110.369 211.854 108.416Z" fill="white"/>
</svg>
