<svg
  width="435"
  height="435"
  viewBox="0 0 435 435"
  fill="none"
  xmlns="http://www.w3.org/2000/svg"
>
  <g clip-path="url(#clip0_1_2)">
    <circle cx="217.5" cy="217.5" r="217.5" fill="white" />
    <path
      d="M252.534 64.1704C241.213 59.1337 229.606 55.6899 217.485 54.3415C196.455 52.0018 176.272 55.221 157.108 64.2367C132.658 75.7389 114.081 93.7478 98.8464 115.48C91.5435 125.897 85.2949 136.885 80.2186 148.52C79.6492 149.826 78.8608 151.088 78.9222 153.463C86.8261 148.384 94.3753 143.588 102.968 140.33C89.824 161.66 78.6173 183.746 73.6038 208.593C81.2974 201.983 88.45 194.913 97.885 189.342C94.3392 201.284 90.5398 212.333 87.8818 223.692C85.2533 234.925 83.2416 246.239 83.4588 257.994C88.5665 252.437 92.9264 246.414 99.1882 241.477C99.4993 243.002 99.9397 244.188 99.9533 245.378C100.103 258.441 100.618 271.525 97.812 284.432C94.7947 298.313 88.4199 310.494 79.0462 321.232C73.1321 328.007 66.5252 333.994 59.2247 339.402C56.9106 337.741 55.6243 335.377 54.1015 333.269C36.6267 309.077 25.5379 282.23 20.1967 253.036C17.1595 236.435 16.3669 219.634 17.4786 202.876C20.3078 160.225 35.3233 122.009 62.8385 89.0111C93.3639 52.4033 132.446 29.5397 179.688 20.4102C195.671 17.3215 211.829 16.3715 227.974 17.3956C269.132 20.0062 306.505 33.3029 339.068 58.5048C377.169 87.9927 401.597 126.205 412.168 172.97C415.688 188.54 417.331 204.319 416.945 220.211C415.798 267.365 400.429 309.45 369.916 345.925C340.231 381.412 302.268 403.476 256.933 413.39C246.072 415.765 235.057 417.187 223.774 416.98C223.329 415.671 224.094 414.654 224.51 413.627C229.02 402.479 232.712 391.104 234.563 379.198C236.05 369.632 235.962 360.044 235.061 350.439C234.275 342.052 233.658 333.645 232.673 325.282C232.02 319.743 232.186 314.217 232.214 308.686C232.25 301.227 233.562 293.905 235.152 286.635C235.287 286.016 235.625 285.427 234.942 284.739C233.539 284.686 233.399 285.996 232.992 286.867C229.195 294.997 226.977 303.598 225.455 312.379C223.704 322.476 222.676 332.662 222.105 342.886C220.645 369.002 212.304 392.586 195.9 413.279C194.372 415.206 192.959 415.858 190.338 415.502C170.152 412.766 150.96 406.801 132.34 398.791C129.8 397.699 129.363 396.323 129.667 393.754C131.003 382.488 131.864 371.22 130.204 359.861C129.287 353.588 127.63 347.496 126.124 340.761C130.682 343.152 134.043 346.199 137.47 349.117C145.039 355.561 151.569 362.924 157 371.223C157.439 371.894 157.824 372.831 158.814 372.648C160.034 372.423 159.794 371.275 159.907 370.418C160.673 364.622 160.262 358.843 159.971 353.027C159.527 344.132 158.3 335.379 156.62 326.65C154.555 315.924 151.441 305.509 147.578 295.296C147.047 293.893 146.318 292.526 146.277 290.39C156.955 296.144 165.965 303.406 174.693 311.261C175.936 309.323 175.018 307.989 174.515 306.723C170.691 297.112 165.391 288.303 159.423 279.858C152.321 269.808 144.324 260.357 138.486 249.461C132.157 237.646 127.931 225.151 126.127 211.882C125.957 210.629 125.786 209.375 125.662 208.117C125.641 207.902 125.857 207.664 125.977 207.407C127.155 207.71 127.47 208.762 128.052 209.522C143.361 229.527 163.464 241.523 188.634 245.352C200.068 247.092 211.322 245.987 222.607 244.356C237.313 242.232 251.973 239.548 266.895 239.544C276.907 239.541 286.913 240.04 296.918 240.67C313.457 241.71 330.018 242.178 345.908 236.17C355.569 232.518 363.849 226.983 369.743 218.388C370.485 217.307 371.801 216.133 371 214.747C370.271 213.485 368.622 213.539 367.254 213.503C359.608 213.3 352.031 214.282 344.434 214.889C332.521 215.839 320.637 216.464 308.648 215.878C285.851 214.762 263.921 208.999 241.737 204.542C230.503 202.285 219.224 200.48 207.741 199.702C196.112 198.914 184.621 199.97 173.083 200.797C170.427 200.987 167.75 200.916 165.082 200.927C164.101 200.93 163.232 200.557 162.88 199.589C162.549 198.678 163.192 198.014 163.781 197.457C166.698 194.693 170.327 193.081 173.998 191.641C187.044 186.524 200.555 184.937 214.536 186.195C231.523 187.724 247.889 192.252 264.459 195.794C276.928 198.459 289.405 200.867 302.177 201.724C313.496 202.484 324.746 202.091 336.032 201.204C348.021 200.263 360.006 198.907 372.068 199.466C376.005 199.649 379.903 200.282 383.782 201.026C386.703 201.585 387.673 200.836 387.891 197.902C389.311 178.787 386.336 160.447 377.602 143.212C371.002 130.187 360.389 120.979 348.095 113.383C335.026 105.308 320.858 99.3891 307.042 92.7822C290.635 84.9358 274.76 76.1233 258.9 67.275C256.903 66.1609 254.782 65.263 252.534 64.1704Z"
      fill="black"
    />
    <path
      d="M209.386 165.864C189.06 160.787 174.126 144.464 171.558 124.391C171.114 120.917 171.118 117.326 171.775 113.804C172.496 109.942 171.354 108.916 167.461 110.025C163.296 111.212 159.343 112.936 155.511 114.933C154.725 115.343 154.058 116.097 153.004 115.828C152.323 114.852 153.03 114.086 153.432 113.325C161.917 97.2707 175.021 87.4577 193.312 84.8477C208.956 82.6152 223.077 87.2748 236.555 94.5645C250.04 101.858 262.405 110.938 275.72 118.506C281.156 121.596 286.689 124.427 292.82 125.95C293.498 126.118 294.124 126.49 295.033 126.878C293.051 130.041 290.159 131.749 287.101 133.163C280.962 136 274.371 136.541 267.727 136.37C265.902 136.323 265.062 136.823 264.447 138.423C257.728 155.917 243.993 164.345 226.017 166.98C220.554 167.781 215.018 167.193 209.386 165.864ZM237.446 141.778C236.69 142.106 235.957 142.508 235.173 142.749C228.885 144.68 223.101 143.909 218.392 139.105C213.892 134.514 212.957 129.037 214.948 122.985C216.444 118.437 219.55 115.464 223.884 113.56C224.591 113.25 225.608 113.042 225.589 112.01C225.57 111.043 224.696 110.697 223.932 110.389C220.058 108.826 216.029 107.726 211.853 108.416C200.028 110.369 193.562 120.368 196.501 131.887C200.452 147.374 215.574 155.95 231.012 151.238C237.886 149.139 243.926 145.733 246.154 138.258C246.685 136.476 247.584 134.531 245.816 132.147C243.649 136.001 241.589 139.565 237.446 141.778Z"
      fill="black"
    />
    <path
      d="M336.07 152.667C334.946 146.277 339.158 142.565 345.185 144.397C349.088 145.583 352.154 148.03 354.851 150.924C358.83 155.194 361.615 160.151 363.178 165.767C363.501 166.932 363.646 168.06 363.2 169.188C362.518 169.466 362.107 169.04 361.716 168.682C356.55 163.951 350.523 160.84 343.66 159.301C339.989 158.478 337.368 156.462 336.07 152.667Z"
      fill="black"
    />
  </g>
  <defs>
    <clipPath id="clip0_1_2">
      <rect width="435" height="435" fill="white" />
    </clipPath>
  </defs>
</svg>
